<?xml version="1.0"?>
<svg xmlns="http://www.w3.org/2000/svg" xmlns:xlink="http://www.w3.org/1999/xlink" version="1.1" id="Capa_1" x="0px" y="0px" viewBox="0 0 512 512" style="enable-background:new 0 0 512 512;" xml:space="preserve" width="512px" height="512px" class=""><g><path style="fill:#05386B" d="M256,0C115.3,0,0,115.3,0,256s115.3,256,256,256s256-115.3,256-256S396.7,0,256,0z" data-original="#FD003A" class="active-path" data-old_color="#FD003A"/><path style="fill:#0D457C" d="M512,256c0,140.7-115.3,256-256,256S0,396.7,0,256H512z" data-original="#E50027" class="" data-old_color="#E50027"/><path style="fill:#5CDB95" d="M350.39,245.39L212.31,107.31c-5.86-5.86-15.36-5.86-21.22,0l-21.1,21.1  c-5.85,5.85-5.85,15.34-0.01,21.2L276.1,256L169.979,362.393c-5.845,5.86-5.839,15.347,0.014,21.2l21.1,21.1  c5.858,5.858,15.355,5.858,21.213,0L350.39,266.61c2.93-2.93,4.39-6.77,4.39-10.61C354.78,252.16,353.32,248.32,350.39,245.39z" data-original="#E1E4FB" class="" data-old_color="#E1E4FB"/><path style="fill:#379683" d="M354.78,256c0,3.84-1.46,7.68-4.39,10.61L212.307,404.693c-5.858,5.858-15.355,5.858-21.213,0  l-21.1-21.1c-5.853-5.853-5.859-15.34-0.014-21.2L276.1,256H354.78z" data-original="#C5C9F7" class="" data-old_color="#C5C9F7"/></g> </svg>
